<?xml version="1.0" standalone="no"?>
<!DOCTYPE svg PUBLIC "-//W3C//DTD SVG 20010904//EN"
 "http://www.w3.org/TR/2001/REC-SVG-20010904/DTD/svg10.dtd">
<svg version="1.0" xmlns="http://www.w3.org/2000/svg"
 width="594.000000pt" height="96.000000pt" viewBox="0 0 594.000000 96.000000"
 preserveAspectRatio="xMidYMid meet">
<metadata>
Created by potrace 1.16, written by Peter Selinger 2001-2019
</metadata>
<g transform="translate(0.000000,96.000000) scale(0.100000,-0.100000)"
fill="#000000" stroke="none">
<path d="M773 903 l-13 -26 23 21 c21 20 27 21 90 10 37 -6 67 -14 67 -17 0
-3 -22 -30 -48 -60 l-48 -55 -77 16 c-60 12 -79 12 -87 3 -5 -7 -28 -20 -50
-30 -38 -17 -45 -17 -103 -4 l-62 15 64 33 64 33 59 -14 c32 -8 61 -11 64 -7
5 8 -9 13 -66 25 l-34 7 46 23 c46 23 69 44 49 44 -6 0 -33 -13 -61 -30 -58
-34 -66 -35 -138 -16 -35 9 -52 10 -49 3 2 -6 26 -16 53 -22 l49 -11 -61 -31
-61 -32 -58 15 c-37 10 -61 12 -67 6 -6 -6 5 -12 31 -17 22 -4 43 -11 46 -16
3 -4 -22 -22 -56 -40 l-63 -31 -58 18 c-32 9 -61 14 -65 11 -3 -4 18 -90 47
-193 45 -155 51 -187 39 -195 -8 -5 -21 -8 -30 -5 -9 2 -23 -1 -30 -6 -9 -6 1
-8 31 -6 38 2 45 0 48 -17 3 -17 1 -17 -7 -5 -6 8 -11 10 -11 5 0 -6 9 -19 21
-29 13 -11 19 -25 16 -37 -3 -10 -1 -19 5 -19 5 0 6 -4 3 -10 -3 -5 3 -10 15
-10 12 0 18 -4 15 -11 -4 -6 -1 -9 6 -8 23 5 60 -12 53 -23 -4 -7 -2 -8 4 -4
14 8 55 -18 45 -28 -4 -4 0 -4 9 -1 9 4 18 0 22 -10 3 -9 14 -15 23 -13 10 2
17 -2 16 -8 -1 -8 6 -10 19 -6 16 4 19 2 13 -8 -6 -10 -4 -11 11 -5 10 4 27 8
36 9 9 0 15 2 13 5 -8 7 17 31 26 25 14 -8 11 -26 -3 -18 -8 4 -10 3 -5 -2 5
-5 12 -9 15 -9 4 0 21 -9 37 -21 17 -11 43 -25 58 -32 15 -7 26 -15 24 -20 -3
-4 10 -8 28 -9 29 -3 36 3 76 59 24 34 52 75 62 91 10 16 22 25 29 21 6 -4 8
-3 5 3 -8 13 41 85 53 78 6 -4 7 1 3 11 -5 13 -3 15 7 9 8 -5 11 -4 7 2 -4 6
3 22 14 37 l20 26 237 1 c155 0 229 3 214 9 -19 8 -21 13 -12 30 10 18 8 20
-22 21 -241 3 -388 3 -388 -1 0 -3 -11 -18 -24 -34 l-23 -30 -17 52 -17 51 36
48 c21 26 42 47 47 45 12 -3 3 45 -22 113 -25 69 -51 176 -53 218 -1 20 -4 33
-6 31 -2 -2 -9 0 -15 5 -12 10 -67 20 -141 26 -46 3 -51 1 -62 -22z m-20 -143
c31 -6 57 -14 57 -17 0 -6 -31 -45 -74 -93 l-35 -39 -70 22 -71 22 56 63 c31
35 62 61 68 59 6 -3 37 -10 69 -17z m-148 -158 c33 -10 59 -22 57 -28 -5 -19
-106 -134 -118 -134 -6 0 -29 7 -50 16 -22 9 -49 20 -62 25 -23 9 -22 11 35
74 32 35 63 64 68 65 6 0 37 -8 70 -18z m105 -246 c-28 -36 -53 -66 -55 -66
-5 0 -65 109 -65 119 0 6 25 40 56 76 l56 66 30 -65 31 -65 -53 -65z m95 -26
c14 -28 22 -56 18 -63 -16 -27 -83 -108 -89 -108 -4 0 -19 21 -35 48 l-27 48
50 63 c27 34 52 62 54 62 2 0 15 -23 29 -50z"/>
<path d="M1446 804 c-14 -20 -23 -24 -47 -20 -29 4 -32 1 -55 -50 -13 -30 -24
-56 -24 -59 0 -2 12 -5 28 -7 21 -2 26 -8 24 -25 -2 -17 3 -22 26 -25 l30 -3
-15 -37 -15 -38 -72 0 -72 0 -22 -45 -22 -45 35 -1 c181 -3 189 -3 199 20 7
16 18 21 46 21 36 0 37 1 62 65 l26 65 -27 0 c-36 0 -43 8 -30 33 10 18 8 19
-20 15 -41 -6 -46 3 -23 44 18 32 20 33 85 33 62 0 67 2 76 25 5 14 12 33 16
43 7 15 -2 17 -93 17 -96 0 -100 -1 -116 -26z"/>
<path d="M1709 788 l-16 -43 448 0 449 0 0 27 c0 14 3 33 6 42 6 14 -37 16
-433 16 l-439 0 -15 -42z"/>
<path d="M2654 768 l-9 -63 -68 0 c-51 0 -68 -4 -72 -15 -3 -11 -35 -187 -35
-194 0 0 36 -1 80 -1 44 0 80 3 80 7 0 4 13 3 30 -2 28 -8 30 -7 35 23 6 38
35 281 35 296 0 6 -15 11 -34 11 l-33 0 -9 -62z"/>
<path d="M2858 808 c-2 -19 -8 -22 -34 -20 -30 3 -31 2 -38 -44 -10 -77 -9
-79 27 -79 27 0 32 -4 31 -22 0 -20 5 -23 35 -23 37 0 37 0 33 -40 l-4 -40
-72 0 -72 0 -3 -42 c-1 -23 -4 -44 -6 -47 -2 -3 34 -5 78 -4 45 1 97 2 115 2
25 1 32 5 32 21 0 17 7 20 40 20 l40 0 0 68 0 67 -32 0 c-27 0 -34 4 -36 23
-3 20 -9 23 -35 20 -21 -2 -32 1 -31 10 1 6 2 25 3 42 l1 29 68 -2 67 -2 3 43
3 42 -105 0 c-101 0 -105 -1 -108 -22z"/>
<path d="M3130 788 l0 -43 105 0 c114 0 115 1 99 63 -6 21 -11 22 -105 22
l-99 0 0 -42z"/>
<path d="M3406 768 c4 -35 6 -84 5 -110 -1 -26 3 -49 10 -53 8 -6 7 -10 -2
-16 -12 -8 -11 -11 1 -19 11 -7 12 -12 4 -20 -21 -21 -4 -48 32 -52 40 -5 38
-22 22 180 l-11 152 -34 0 -34 0 7 -62z"/>
<path d="M3540 788 l0 -43 1057 3 c582 2 1059 4 1061 6 1 2 -7 20 -19 40 l-21
36 -1039 0 -1039 0 0 -42z"/>
<path d="M1670 684 c-6 -14 -10 -26 -10 -28 0 -1 14 -1 30 2 25 4 29 2 24 -13
-5 -12 -15 -16 -35 -13 -18 3 -30 -1 -34 -10 -8 -22 -6 -27 7 -14 19 19 50 15
46 -5 -2 -14 -11 -17 -36 -15 -18 2 -32 -1 -32 -7 0 -6 11 -11 25 -11 14 0 25
-4 25 -9 0 -5 -11 -11 -25 -13 -14 -3 -25 -1 -25 6 0 11 -20 -13 -20 -25 0 -3
14 -3 31 -1 24 4 30 1 27 -9 -3 -8 -19 -14 -38 -15 -28 0 -34 -5 -46 -39 -7
-22 -11 -41 -9 -44 3 -2 5 1 5 7 0 7 11 12 25 12 16 0 25 -6 25 -15 0 -10 -10
-15 -34 -15 -33 0 -47 -14 -45 -43 0 -7 4 -3 8 7 5 12 18 20 34 20 23 1 26 -2
21 -19 -4 -11 -7 -20 -8 -20 0 0 -11 -5 -22 -12 -15 -8 -100 -12 -275 -13
-139 0 -255 -3 -258 -5 -2 -3 132 -4 299 -3 232 2 304 6 308 16 2 7 -5 12 -17
12 -26 0 -26 0 0 63 40 99 52 117 77 117 17 0 22 -4 19 -15 -4 -8 -2 -17 4
-21 6 -3 13 3 16 15 8 30 50 29 55 -1 3 -21 37 69 68 177 9 29 9 30 -7 8 -8
-13 -26 -23 -38 -23 -19 0 -22 4 -19 23 l5 22 -17 -22 c-9 -13 -25 -23 -35
-23 -13 0 -19 7 -20 23 l0 22 -16 -22 c-20 -30 -57 -32 -48 -3 9 29 -4 24 -15
-6z"/>
<path d="M3234 702 c-22 -2 -34 -9 -37 -23 -4 -13 -14 -19 -35 -19 -30 0 -30
0 -34 -63 l-3 -62 38 3 c33 4 37 2 37 -20 0 -20 5 -23 33 -23 23 0 33 5 37 20
4 14 16 21 38 23 l32 3 0 63 0 62 -34 -4 c-30 -3 -35 -1 -38 19 -2 20 -8 24
-34 21z"/>
<path d="M4319 702 c-1 -4 -2 -14 -3 -22 0 -9 -13 -16 -32 -18 l-32 -3 20 -72
c11 -40 20 -77 20 -83 1 -6 31 -11 76 -12 72 -2 99 -13 85 -34 -2 -5 1 -15 7
-23 17 -20 4 -35 -31 -35 -26 0 -29 -3 -23 -25 5 -19 2 -25 -11 -25 -9 0 -14
-4 -11 -9 3 -5 -49 -8 -117 -8 -67 1 -103 3 -80 5 54 4 68 21 56 69 l-9 38
-555 3 -556 2 1 -22 1 -23 -223 -2 -223 -2 6 27 5 27 -407 -2 c-225 -2 -442
-3 -484 -3 l-76 0 -12 -42 c-11 -36 -11 -43 3 -53 20 -15 11 -25 -20 -19 -13
2 -24 0 -24 -6 0 -7 678 -9 2098 -8 1153 1 1991 5 1862 8 l-235 6 248 1 c173
1 253 5 262 13 12 10 10 19 -16 56 l-30 44 -554 0 c-305 0 -555 -2 -555 -5 0
-3 7 -22 15 -42 19 -45 19 -53 -2 -55 -10 -1 11 -4 47 -8 43 -5 2 -7 -125 -8
-181 0 -188 0 -162 16 15 9 27 19 27 22 0 3 -24 79 -54 170 l-53 165 -61 2
c-34 1 -63 -1 -63 -5z"/>
<path d="M4657 703 c-3 -5 13 -54 35 -110 l39 -103 110 0 c60 0 109 3 109 6 0
3 -5 14 -10 25 -9 16 -22 19 -83 19 l-72 0 -22 60 -22 60 65 0 c63 0 70 4 58
34 -5 13 -24 16 -104 16 -55 0 -101 -3 -103 -7z"/>
<path d="M5005 690 c5 -17 2 -20 -24 -20 -17 0 -31 -4 -31 -9 0 -5 11 -34 25
-65 23 -53 27 -56 60 -56 28 0 38 -5 47 -25 9 -20 19 -25 46 -25 31 0 34 2 28
25 -6 23 -4 25 29 25 l36 0 -33 63 c-31 57 -36 62 -70 65 -26 2 -39 9 -43 23
-5 14 -15 19 -41 19 -31 0 -35 -3 -29 -20z"/>
<path d="M5210 703 c0 -4 23 -54 52 -110 50 -100 52 -103 85 -103 18 0 33 5
33 11 0 6 -18 45 -41 85 l-40 74 34 0 c31 0 38 -5 61 -47 14 -27 34 -65 43
-85 16 -34 22 -38 55 -38 41 0 45 5 25 35 -7 11 -28 46 -45 78 l-32 57 34 0
c27 0 38 -6 48 -24 72 -134 82 -146 115 -146 18 0 33 5 33 11 0 6 -27 55 -61
110 l-61 99 -169 0 c-93 0 -169 -3 -169 -7z"/>
<path d="M4005 660 c-23 -4 -30 -10 -28 -25 12 -109 30 -146 69 -143 28 3 28
6 8 106 -6 29 -4 32 18 32 37 0 57 -21 62 -64 6 -46 31 -76 64 -76 20 0 23 4
18 23 -4 12 -14 51 -23 87 l-16 65 -71 0 c-39 0 -85 -2 -101 -5z"/>
</g>
</svg>
